<?xml version="1.0" encoding="iso-8859-1"?>
<!-- Generator: Adobe Illustrator 19.0.0, SVG Export Plug-In . SVG Version: 6.00 Build 0)  -->
<svg version="1.1" id="Layer_1" xmlns="http://www.w3.org/2000/svg" xmlns:xlink="http://www.w3.org/1999/xlink" x="0px" y="0px"
	 viewBox="0 0 279.334 279.334" style="enable-background:new 0 0 279.334 279.334;" xml:space="preserve">
<circle style="fill:#FDFADD;" cx="139.667" cy="139.667" r="139.667"/>
<circle style="fill:#E2EBD5;" cx="139.667" cy="139.667" r="35.751"/>
<g>
	<path style="fill:#FAD0B0;" d="M203.883,169.711c-10.919,23.245-34.086,39.631-61.14,40.792
		c-3.686,9.368-8.09,18.465-13.228,27.181c-7.803,13.236-17.166,25.453-27.806,36.425c12.069,3.401,24.801,5.223,37.958,5.223
		c51.217,0,95.987-27.574,120.296-68.681C244.404,193.019,225.209,179.07,203.883,169.711z"/>
	<path style="fill:#C8F9EC;" d="M109.622,203.883c-23.245-10.919-39.631-34.086-40.792-61.14
		c-9.368-3.686-18.465-8.09-27.181-13.228c-13.236-7.803-25.453-17.166-36.425-27.806C1.822,113.778,0,126.509,0,139.667
		c0,51.217,27.574,95.987,68.681,120.296C86.315,244.404,100.264,225.209,109.622,203.883z"/>
	<path style="fill:#E27879;" d="M75.451,109.622c10.919-23.245,34.086-39.631,61.14-40.792c3.686-9.368,8.09-18.465,13.228-27.181
		c7.802-13.236,17.166-25.453,27.805-36.425C165.555,1.822,152.824,0,139.667,0C88.45,0,43.68,27.574,19.37,68.681
		C34.929,86.314,54.124,100.264,75.451,109.622z"/>
	<path style="fill:#F4F1D7;" d="M138.667,0.013C61.992,0.551,0,62.865,0,139.667s61.992,139.115,138.667,139.654V0.013z"/>
	<path style="fill:#D7E0CB;" d="M138.667,103.941c-19.281,0.531-34.751,16.316-34.751,35.726c0,19.409,15.47,35.195,34.751,35.726
		V103.941z"/>
	<path style="fill:#EBC5A7;" d="M138.667,220.091c-2.741,6.007-5.786,11.883-9.152,17.594
		c-7.803,13.236-17.166,25.453-27.806,36.425c11.762,3.314,24.157,5.116,36.958,5.206L138.667,220.091L138.667,220.091z"/>
	<path style="fill:#C9E4DF;" d="M109.622,203.883c-23.245-10.919-39.631-34.086-40.792-61.14
		c-9.368-3.686-18.465-8.09-27.181-13.228c-13.236-7.803-25.453-17.166-36.425-27.806C1.822,113.778,0,126.509,0,139.667
		c0,51.217,27.574,95.987,68.681,120.296C86.315,244.404,100.264,225.209,109.622,203.883z"/>
	<path style="fill:#C76A6C;" d="M138.667,0.017C87.869,0.374,43.521,27.843,19.37,68.681c15.559,17.633,34.754,31.582,56.08,40.941
		c10.919-23.245,34.086-39.631,61.14-40.792c0.666-1.692,1.363-3.372,2.076-5.045V0.017H138.667z"/>
	<path style="fill:#E2EBD5;" d="M169.712,75.451c23.245,10.919,39.631,34.086,40.792,61.14c9.368,3.686,18.465,8.09,27.181,13.228
		c13.236,7.803,25.453,17.166,36.425,27.806c3.401-12.07,5.223-24.801,5.223-37.958c0-51.217-27.574-95.987-68.681-120.296
		C193.019,34.929,179.07,54.124,169.712,75.451z"/>
</g>
<g>
</g>
<g>
</g>
<g>
</g>
<g>
</g>
<g>
</g>
<g>
</g>
<g>
</g>
<g>
</g>
<g>
</g>
<g>
</g>
<g>
</g>
<g>
</g>
<g>
</g>
<g>
</g>
<g>
</g>
</svg>
